<svg xmlns="http://www.w3.org/2000/svg" viewBox="0 0 302 307.333"><title>Asset 3logo--hamlet</title><line x1="266" y1="264.902" x2="293" y2="264.902" fill="#fff" stroke="#9a5c52" stroke-linecap="round" stroke-miterlimit="10" stroke-width="18"/><line x1="266" y1="44.902" x2="293" y2="44.902" fill="#fff" stroke="#9a5c52" stroke-linecap="round" stroke-miterlimit="10" stroke-width="18"/><line x1="293" y1="264.902" x2="293" y2="44.902" fill="#fff" stroke="#9a5c52" stroke-linecap="round" stroke-miterlimit="10" stroke-width="18"/><path d="M149,180.9H111v102q-27.5,30.863-55,0V26.9c34.44-49.509,64.155,15.427,95,53,30.845-37.573,60.56-102.509,95-53v256q-27.5,30.863-55,0v-102H153" fill="#fff" stroke="#9a5c52" stroke-linecap="round" stroke-miterlimit="10" stroke-width="18"/><polyline points="204 87.902 204 137.902 162 137.902 203.5 88.402" fill="none" stroke="#9a5c52" stroke-linecap="round" stroke-miterlimit="10" stroke-width="3"/><polyline points="98 87.902 98 137.902 140 137.902 98.5 88.402" fill="none" stroke="#9a5c52" stroke-linecap="round" stroke-miterlimit="10" stroke-width="3"/><line x1="36" y1="264.902" x2="9" y2="264.902" fill="#fff" stroke="#9a5c52" stroke-linecap="round" stroke-miterlimit="10" stroke-width="18"/><line x1="36" y1="44.902" x2="9" y2="44.902" fill="#fff" stroke="#9a5c52" stroke-linecap="round" stroke-miterlimit="10" stroke-width="18"/><line x1="9" y1="264.902" x2="9" y2="44.902" fill="#fff" stroke="#9a5c52" stroke-linecap="round" stroke-miterlimit="10" stroke-width="18"/></svg>