<?xml version="1.0" encoding="utf-8"?>
<!-- Generator: Adobe Illustrator 23.0.2, SVG Export Plug-In . SVG Version: 6.00 Build 0)  -->
<svg version="1.1" id="Layer_1" xmlns="http://www.w3.org/2000/svg" xmlns:xlink="http://www.w3.org/1999/xlink" x="0px" y="0px"
	 viewBox="0 0 1024 1024" style="enable-background:new 0 0 1024 1024;" xml:space="preserve">
<style type="text/css">
	.st0{fill:none;}
	.st1{fill:#9A5C52;}
</style>
<g>
	<title>background</title>
	<rect id="canvas_background" x="-1" y="-1" class="st0" width="582" height="402"/>
</g>
<g>
	<title>Layer 1</title>
	<path id="svg_1" class="st1" d="M983.8,312.7C958,251.8,921.1,197,874.1,150C827,103,772.3,66,711.3,40.3C648.2,13.5,581.1,0,512,0
		c-69.1,0-136.2,13.5-199.3,40.2C251.7,66,197,102.9,150,150S66,251.7,40.3,312.7C13.5,375.8,0,442.9,0,512
		c0,69.1,13.5,136.2,40.2,199.3C66,772.2,102.9,827,149.9,874c47,47,101.8,83.9,162.7,109.7c63.1,26.7,130.2,40.3,199.3,40.3h0
		c69.1,0,136.2-13.5,199.3-40.2C772.3,958,827,921.1,874,874c47-47,83.9-101.8,109.7-162.7c26.7-63.1,40.3-130.2,40.3-199.3
		C1024,442.9,1010.5,375.9,983.8,312.7L983.8,312.7z M512,976.3L512,976.3c-124.1,0-240.7-48.3-328.4-136
		C96,752.6,47.7,636,47.7,512C47.7,256,256,47.7,512,47.7c124,0,240.6,48.3,328.3,136c87.7,87.7,136,204.3,136,328.3
		C976.3,768,768,976.3,512,976.3z"/>
	<polygon id="svg_2" class="st1" points="283.7,732.7 390,732.7 389.9,360.3 283.6,360.3 	"/>
	<path id="svg_3" class="st1" d="M756.6,459.9c-2.6-14.8-6.8-29.4-13.3-43c-3.7-7.9-8.4-15.3-14-22c-6.5-7.8-15.2-15-24-20.1
		c-7.5-4.4-16.1-8.4-24.5-10.8c-5-1.3-10.1-2.1-15.3-2.7c-15.6-1.8-31.9-0.9-47.5,0.3c-4.5,0.5-8.9,1.2-13.4,1.9
		c-4.4,0.8-8.8,1.6-13.1,2.6c-7.6,2.3-14.2,6.1-19.9,10.9c-5.7,4.9-10.4,10.9-14.1,17.8c-2.2,4-4,8.2-5.3,12.6
		c-0.1,0.2-1.2,5.4-0.9,5.4h-1.7l-0.1-52.6H443.3l0.1,372.5H549c0,0,0-199.8,0-227.1c0-12.7,8.2-23.3,18.6-29.6
		c10.1-6.2,22.7-6.7,34.2-7.5c5.3-0.3,10.7-0.2,16,0.4c9.1,0.9,18.3,3.8,25.1,10.2c11.4,10.6,13.1,26.8,13.1,41.5
		c0,11.9,0,23.7,0,35.6c0,17.9,0,35.8,0,53.8c0,19.2,0,38.3,0,57.5c0,15.6,0,31.1,0,46.7c0,6.2,0,12.4,0,18.5h104.6
		c0-6.2,0-12.3,0-18.5c0-15.8,0-31.7,0-47.5c0-19.5,0-39,0-58.5c0-31.9,0-63.8,0-95.8C760.6,495,759.7,477.2,756.6,459.9
		L756.6,459.9z"/>
	<circle id="svg_4" class="st1" cx="336.8" cy="281.9" r="53.4"/>
</g>
</svg>
