<?xml version="1.0" standalone="no"?>
<!DOCTYPE svg PUBLIC "-//W3C//DTD SVG 20010904//EN"
 "http://www.w3.org/TR/2001/REC-SVG-20010904/DTD/svg10.dtd">
<svg version="1.0" xmlns="http://www.w3.org/2000/svg"
 width="614.000000pt" height="614.000000pt" viewBox="0 0 614.000000 614.000000"
 preserveAspectRatio="xMidYMid meet">
<metadata>
Created by potrace 1.11, written by Peter Selinger 2001-2013
</metadata>
<g transform="translate(0.000000,614.000000) scale(0.100000,-0.100000)"
fill="#000000" stroke="none">
<path d="M1605 6134 c-99 -23 -149 -42 -245 -95 -57 -31 -220 -179 -220 -200
0 -5 -4 -9 -8 -9 -5 0 -21 -18 -38 -40 -16 -23 -37 -51 -48 -63 -50 -60 -48
-37 -48 -509 0 -244 1 -447 2 -453 2 -5 1 -14 0 -20 -2 -12 -2 -926 1 -940 1
-5 0 -14 -1 -20 -2 -12 -2 -926 1 -940 1 -5 0 -14 -1 -20 -2 -12 -2 -1886 1
-1900 1 -5 0 -14 -1 -20 -2 -9 -2 -394 0 -460 2 -69 261 -299 420 -372 63 -29
130 -54 130 -48 0 2 12 0 28 -6 15 -6 66 -13 114 -15 76 -3 123 2 213 20 35 8
109 36 132 52 13 8 23 12 23 9 0 -3 20 8 44 25 25 16 49 30 55 30 5 0 14 6 18
13 4 6 33 31 63 54 30 23 91 79 135 124 l80 83 0 965 0 966 618 0 c339 1 617
-2 618 -5 1 -3 2 -438 3 -967 l1 -961 106 -104 c120 -117 118 -115 200 -170
148 -98 283 -138 449 -134 59 2 112 6 119 10 6 4 19 9 30 11 41 8 175 67 216
95 24 16 46 30 50 30 4 0 12 6 20 13 7 6 30 26 51 42 21 17 77 70 126 119 l88
90 0 75 c1 42 1 1222 1 2623 l1 2547 -33 48 c-19 26 -36 50 -39 53 -3 3 -23
27 -45 55 -118 148 -285 267 -426 305 -82 22 -207 22 -291 1 -230 -59 -422
-209 -693 -541 -75 -91 -88 -109 -162 -210 -26 -36 -51 -66 -55 -68 -4 -2 -8
-10 -8 -17 0 -7 -4 -15 -8 -17 -4 -1 -23 -25 -42 -53 -19 -27 -39 -54 -43 -60
-7 -10 -72 -99 -101 -140 -114 -159 -129 -176 -141 -163 -7 7 -47 60 -88 118
-41 58 -82 113 -91 123 -9 9 -16 19 -16 22 0 4 -87 128 -113 160 -4 6 -25 35
-47 65 -22 30 -43 60 -47 65 -5 6 -39 51 -77 100 -38 50 -77 97 -85 106 -9 10
-32 37 -51 60 -120 151 -351 344 -475 399 -27 13 -58 26 -67 31 -49 24 -247
46 -303 33z"/>
<path d="M181 5412 c-45 -15 -93 -63 -109 -111 -9 -26 -12 -582 -12 -2261 l0
-2226 25 -51 c21 -41 35 -56 73 -73 45 -22 58 -23 348 -22 255 0 306 3 340 17
105 44 142 173 76 266 -15 21 -33 39 -39 39 -7 0 -13 4 -13 9 0 18 -50 24
-244 27 -109 1 -200 5 -202 7 -6 6 -5 4019 1 4025 3 3 94 6 202 7 215 1 232 5
284 62 75 81 52 220 -45 270 -46 24 -66 25 -364 27 -207 1 -292 -2 -321 -12z"/>
<path d="M5366 5423 c-1 -1 -17 -5 -35 -8 -41 -7 -97 -49 -117 -87 -34 -65
-19 -168 31 -211 56 -48 70 -51 275 -53 107 -1 198 -2 203 -3 4 -1 7 -908 7
-2016 0 -1605 -3 -2015 -12 -2015 -7 -1 -101 -2 -208 -3 -190 -2 -196 -3 -230
-27 -51 -36 -68 -59 -79 -110 -16 -72 -4 -120 41 -163 59 -57 75 -59 405 -59
326 0 341 2 390 54 57 60 53 -98 53 2326 0 1927 -2 2234 -15 2264 -19 47 -76
95 -122 104 -32 6 -581 13 -587 7z"/>
</g>
</svg>
